<?xml version="1.0" encoding="UTF-8" standalone="no"?>
<!-- Created with Inkscape (http://www.inkscape.org/) -->

<svg
   xmlns:dc="http://purl.org/dc/elements/1.1/"
   xmlns:cc="http://creativecommons.org/ns#"
   xmlns:rdf="http://www.w3.org/1999/02/22-rdf-syntax-ns#"
   xmlns:svg="http://www.w3.org/2000/svg"
   xmlns="http://www.w3.org/2000/svg"
   xmlns:sodipodi="http://sodipodi.sourceforge.net/DTD/sodipodi-0.dtd"
   xmlns:inkscape="http://www.inkscape.org/namespaces/inkscape"
   width="192mm"
   height="192mm"
   viewBox="0 0 192 192"
   version="1.1"
   id="svg140"
   inkscape:version="0.92.4 (5da689c313, 2019-01-14)"
   sodipodi:docname="icon.svg">
  <defs
     id="defs134" />
  <sodipodi:namedview
     id="base"
     pagecolor="#ffffff"
     bordercolor="#666666"
     borderopacity="1.0"
     inkscape:pageopacity="0.0"
     inkscape:pageshadow="2"
     inkscape:zoom="0.35"
     inkscape:cx="-308.35765"
     inkscape:cy="159.27079"
     inkscape:document-units="mm"
     inkscape:current-layer="layer1"
     showgrid="false"
     fit-margin-top="0"
     fit-margin-left="0"
     fit-margin-right="0"
     fit-margin-bottom="0"
     inkscape:window-width="1438"
     inkscape:window-height="879"
     inkscape:window-x="0"
     inkscape:window-y="19"
     inkscape:window-maximized="0" />
  <metadata
     id="metadata137">
    <rdf:RDF>
      <cc:Work
         rdf:about="">
        <dc:format>image/svg+xml</dc:format>
        <dc:type
           rdf:resource="http://purl.org/dc/dcmitype/StillImage" />
        <dc:title></dc:title>
      </cc:Work>
    </rdf:RDF>
  </metadata>
  <g
     inkscape:label="Layer 1"
     inkscape:groupmode="layer"
     id="layer1"
     transform="translate(-85.678009,90.566922)">
    <rect
       style="fill:#3b1142;fill-opacity:1;stroke-width:1.72429192"
       id="rect47"
       width="192"
       height="192"
       x="85.678009"
       y="-90.566971" />
    <g
       transform="matrix(2.2946812,0,0,2.2946812,136.36768,-53.639938)"
       style="fill:#ffffff;fill-rule:evenodd;stroke:none;stroke-width:1"
       id="Shape">
      <path
         d="m 32.248905,47.212774 c 0,0 -2.413139,-1.385767 -2.696715,-1.548905 L 0.93978102,29.135766 C 0.37992701,28.814234 0.05109489,28.217518 0.05109489,27.571898 V 3.2332117 0.13321168 c 0,0 2.41021901,1.37591242 2.66459851,1.51459852 0.5572993,0.3058394 0.9321168,0.9010949 0.9321168,1.5854015 V 26.529197 L 31.353285,42.536861 c 0.587956,0.337956 0.913138,0.9573 0.904014,1.590876 -0.0044,0.296716 -0.0084,3.085037 -0.0084,3.085037 v 0 z"
         id="path8"
         inkscape:connector-curvature="0" />
      <path
         d="m 39.440511,51.35365 c 0,0 -2.44781,-1.407665 -2.713869,-1.563139 -0.533941,-0.312774 -0.89124,-0.893796 -0.89124,-1.558759 V 24.90146 l -25.024453,-14.463504 0.0015,13.015694 c 0,0.995985 -0.01058,3.083211 -0.01058,3.083211 0,0 -2.4051097,-1.40073 -2.6711681,-1.549635 C 7.5923358,24.686496 7.229927,24.121898 7.229562,23.455109 V 7.3562044 C 7.2291971,6.7113139 7.5708029,6.1251825 8.1291971,5.8029197 8.6879562,5.480292 9.3759124,5.4861314 9.9339416,5.8091241 L 38.539781,22.329197 c 0.556934,0.322263 0.892336,0.919708 0.892336,1.563139 v 24.339416 c 0,0.99562 0.0084,3.121898 0.0084,3.121898 v 0 z"
         id="path10"
         inkscape:connector-curvature="0" />
      <path
         d="m 17.962044,30.677737 c 0,0 -2.45365,-1.418613 -2.729562,-1.590146 -0.509489,-0.318613 -0.84708,-0.885401 -0.84708,-1.531752 v -7.816423 c 0,-0.995985 0.0022,-3.093066 0.0022,-3.093066 0,0 2.436132,1.378103 2.70146,1.533212 0.535037,0.312409 0.893066,0.894161 0.893066,1.559489 v 7.816423 c 0,0.995621 -0.02007,3.122263 -0.02007,3.122263 v 0 z"
         id="path12"
         inkscape:connector-curvature="0" />
      <path
         d="m 25.133212,34.822628 c 0,0 -2.441971,-1.414964 -2.712409,-1.577373 -0.523723,-0.314963 -0.872628,-0.890146 -0.872628,-1.547445 v -7.816423 c 0,-0.995986 -0.004,-3.112774 -0.004,-3.112774 0,0 2.423722,1.392701 2.683941,1.539781 0.548175,0.309124 0.916788,0.89781 0.916788,1.573358 v 7.816423 c 0,0.995986 -0.01168,3.124453 -0.01168,3.124453 v 0 z"
         id="path14"
         inkscape:connector-curvature="0" />
      <path
         d="m 32.280657,38.95219 c 0,0 -2.437591,-1.410584 -2.70292,-1.565329 -0.535766,-0.312043 -0.89416,-0.893795 -0.89416,-1.560219 v -7.816058 c 0,-0.99635 -0.0037,-3.128467 -0.0037,-3.128467 0,0 2.405839,1.403649 2.660584,1.5427 0.560584,0.30511 0.939416,0.901095 0.939416,1.586132 v 7.816058 c 0,0.995986 7.3e-4,3.125183 7.3e-4,3.125183 v 0 z"
         id="path16"
         inkscape:connector-curvature="0" />
    </g>
  </g>
</svg>
